<?xml version="1.0" standalone="no"?>
<svg xmlns:xlink="http://www.w3.org/1999/xlink" xmlns="http://www.w3.org/2000/svg" viewBox="0 0 24 24" aria-labelledby="previewLabel"><rect name="s0" width="1" height="1" x="0" y="0" style="fill: transparent;"/><rect name="s1" width="1" height="1" x="1" y="0" style="fill: transparent;"/><rect name="s2" width="1" height="1" x="2" y="0" style="fill: transparent;"/><rect name="s3" width="1" height="1" x="3" y="0" style="fill: transparent;"/><rect name="s4" width="1" height="1" x="4" y="0" style="fill: transparent;"/><rect name="s5" width="1" height="1" x="5" y="0" style="fill: transparent;"/><rect name="s6" width="1" height="1" x="6" y="0" style="fill: transparent;"/><rect name="s7" width="1" height="1" x="7" y="0" style="fill: transparent;"/><rect name="s8" width="1" height="1" x="8" y="0" style="fill: transparent;"/><rect name="s9" width="1" height="1" x="9" y="0" style="fill: transparent;"/><rect name="s10" width="1" height="1" x="10" y="0" style="fill: transparent;"/><rect name="s11" width="1" height="1" x="11" y="0" style="fill: transparent;"/><rect name="s12" width="1" height="1" x="12" y="0" style="fill: transparent;"/><rect name="s13" width="1" height="1" x="13" y="0" style="fill: transparent;"/><rect name="s14" width="1" height="1" x="14" y="0" style="fill: transparent;"/><rect name="s15" width="1" height="1" x="15" y="0" style="fill: transparent;"/><rect name="s16" width="1" height="1" x="16" y="0" style="fill: transparent;"/><rect name="s17" width="1" height="1" x="17" y="0" style="fill: transparent;"/><rect name="s18" width="1" height="1" x="18" y="0" style="fill: transparent;"/><rect name="s19" width="1" height="1" x="19" y="0" style="fill: transparent;"/><rect name="s20" width="1" height="1" x="20" y="0" style="fill: transparent;"/><rect name="s21" width="1" height="1" x="21" y="0" style="fill: transparent;"/><rect name="s22" width="1" height="1" x="22" y="0" style="fill: transparent;"/><rect name="s23" width="1" height="1" x="23" y="0" style="fill: transparent;"/><rect name="s24" width="1" height="1" x="0" y="1" style="fill: transparent;"/><rect name="s25" width="1" height="1" x="1" y="1" style="fill: transparent;"/><rect name="s26" width="1" height="1" x="2" y="1" style="fill: transparent;"/><rect name="s27" width="1" height="1" x="3" y="1" style="fill: transparent;"/><rect name="s28" width="1" height="1" x="4" y="1" style="fill: transparent;"/><rect name="s29" width="1" height="1" x="5" y="1" style="fill: transparent;"/><rect name="s30" width="1" height="1" x="6" y="1" style="fill: transparent;"/><rect name="s31" width="1" height="1" x="7" y="1" style="fill: transparent;"/><rect name="s32" width="1" height="1" x="8" y="1" style="fill: transparent;"/><rect name="s33" width="1" height="1" x="9" y="1" style="fill: transparent;"/><rect name="s34" width="1" height="1" x="10" y="1" style="fill: transparent;"/><rect name="s35" width="1" height="1" x="11" y="1" style="fill: transparent;"/><rect name="s36" width="1" height="1" x="12" y="1" style="fill: transparent;"/><rect name="s37" width="1" height="1" x="13" y="1" style="fill: transparent;"/><rect name="s38" width="1" height="1" x="14" y="1" style="fill: transparent;"/><rect name="s39" width="1" height="1" x="15" y="1" style="fill: transparent;"/><rect name="s40" width="1" height="1" x="16" y="1" style="fill: transparent;"/><rect name="s41" width="1" height="1" x="17" y="1" style="fill: transparent;"/><rect name="s42" width="1" height="1" x="18" y="1" style="fill: transparent;"/><rect name="s43" width="1" height="1" x="19" y="1" style="fill: transparent;"/><rect name="s44" width="1" height="1" x="20" y="1" style="fill: transparent;"/><rect name="s45" width="1" height="1" x="21" y="1" style="fill: transparent;"/><rect name="s46" width="1" height="1" x="22" y="1" style="fill: transparent;"/><rect name="s47" width="1" height="1" x="23" y="1" style="fill: transparent;"/><rect name="s48" width="1" height="1" x="0" y="2" style="fill: transparent;"/><rect name="s49" width="1" height="1" x="1" y="2" style="fill: transparent;"/><rect name="s50" width="1" height="1" x="2" y="2" style="fill: transparent;"/><rect name="s51" width="1" height="1" x="3" y="2" style="fill: transparent;"/><rect name="s52" width="1" height="1" x="4" y="2" style="fill: transparent;"/><rect name="s53" width="1" height="1" x="5" y="2" style="fill: transparent;"/><rect name="s54" width="1" height="1" x="6" y="2" style="fill: transparent;"/><rect name="s55" width="1" height="1" x="7" y="2" style="fill: transparent;"/><rect name="s56" width="1" height="1" x="8" y="2" style="fill: transparent;"/><rect name="s57" width="1" height="1" x="9" y="2" style="fill: transparent;"/><rect name="s58" width="1" height="1" x="10" y="2" style="fill: transparent;"/><rect name="s59" width="1" height="1" x="11" y="2" style="fill: transparent;"/><rect name="s60" width="1" height="1" x="12" y="2" style="fill: transparent;"/><rect name="s61" width="1" height="1" x="13" y="2" style="fill: transparent;"/><rect name="s62" width="1" height="1" x="14" y="2" style="fill: transparent;"/><rect name="s63" width="1" height="1" x="15" y="2" style="fill: transparent;"/><rect name="s64" width="1" height="1" x="16" y="2" style="fill: transparent;"/><rect name="s65" width="1" height="1" x="17" y="2" style="fill: transparent;"/><rect name="s66" width="1" height="1" x="18" y="2" style="fill: transparent;"/><rect name="s67" width="1" height="1" x="19" y="2" style="fill: transparent;"/><rect name="s68" width="1" height="1" x="20" y="2" style="fill: transparent;"/><rect name="s69" width="1" height="1" x="21" y="2" style="fill: transparent;"/><rect name="s70" width="1" height="1" x="22" y="2" style="fill: transparent;"/><rect name="s71" width="1" height="1" x="23" y="2" style="fill: transparent;"/><rect name="s72" width="1" height="1" x="0" y="3" style="fill: transparent;"/><rect name="s73" width="1" height="1" x="1" y="3" style="fill: transparent;"/><rect name="s74" width="1" height="1" x="2" y="3" style="fill: transparent;"/><rect name="s75" width="1" height="1" x="3" y="3" style="fill: transparent;"/><rect name="s76" width="1" height="1" x="4" y="3" style="fill: transparent;"/><rect name="s77" width="1" height="1" x="5" y="3" style="fill: transparent;"/><rect name="s78" width="1" height="1" x="6" y="3" style="fill: transparent;"/><rect name="s79" width="1" height="1" x="7" y="3" style="fill: transparent;"/><rect name="s80" width="1" height="1" x="8" y="3" style="fill: transparent;"/><rect name="s81" width="1" height="1" x="9" y="3" style="fill: transparent;"/><rect name="s82" width="1" height="1" x="10" y="3" style="fill: transparent;"/><rect name="s83" width="1" height="1" x="11" y="3" style="fill: transparent;"/><rect name="s84" width="1" height="1" x="12" y="3" style="fill: transparent;"/><rect name="s85" width="1" height="1" x="13" y="3" style="fill: transparent;"/><rect name="s86" width="1" height="1" x="14" y="3" style="fill: transparent;"/><rect name="s87" width="1" height="1" x="15" y="3" style="fill: transparent;"/><rect name="s88" width="1" height="1" x="16" y="3" style="fill: transparent;"/><rect name="s89" width="1" height="1" x="17" y="3" style="fill: transparent;"/><rect name="s90" width="1" height="1" x="18" y="3" style="fill: transparent;"/><rect name="s91" width="1" height="1" x="19" y="3" style="fill: transparent;"/><rect name="s92" width="1" height="1" x="20" y="3" style="fill: transparent;"/><rect name="s93" width="1" height="1" x="21" y="3" style="fill: transparent;"/><rect name="s94" width="1" height="1" x="22" y="3" style="fill: transparent;"/><rect name="s95" width="1" height="1" x="23" y="3" style="fill: transparent;"/><rect name="s96" width="1" height="1" x="0" y="4" style="fill: transparent;"/><rect name="s97" width="1" height="1" x="1" y="4" style="fill: transparent;"/><rect name="s98" width="1" height="1" x="2" y="4" style="fill: transparent;"/><rect name="s99" width="1" height="1" x="3" y="4" style="fill: transparent;"/><rect name="s100" width="1" height="1" x="4" y="4" style="fill: transparent;"/><rect name="s101" width="1" height="1" x="5" y="4" style="fill: transparent;"/><rect name="s102" width="1" height="1" x="6" y="4" style="fill: transparent;"/><rect name="s103" width="1" height="1" x="7" y="4" style="fill: transparent;"/><rect name="s104" width="1" height="1" x="8" y="4" style="fill: transparent;"/><rect name="s105" width="1" height="1" x="9" y="4" style="fill: rgb(0, 0, 0);"/><rect name="s106" width="1" height="1" x="10" y="4" style="fill: transparent;"/><rect name="s107" width="1" height="1" x="11" y="4" style="fill: rgb(0, 0, 0);"/><rect name="s108" width="1" height="1" x="12" y="4" style="fill: transparent;"/><rect name="s109" width="1" height="1" x="13" y="4" style="fill: rgb(0, 0, 0);"/><rect name="s110" width="1" height="1" x="14" y="4" style="fill: transparent;"/><rect name="s111" width="1" height="1" x="15" y="4" style="fill: rgb(0, 0, 0);"/><rect name="s112" width="1" height="1" x="16" y="4" style="fill: transparent;"/><rect name="s113" width="1" height="1" x="17" y="4" style="fill: transparent;"/><rect name="s114" width="1" height="1" x="18" y="4" style="fill: transparent;"/><rect name="s115" width="1" height="1" x="19" y="4" style="fill: transparent;"/><rect name="s116" width="1" height="1" x="20" y="4" style="fill: transparent;"/><rect name="s117" width="1" height="1" x="21" y="4" style="fill: transparent;"/><rect name="s118" width="1" height="1" x="22" y="4" style="fill: transparent;"/><rect name="s119" width="1" height="1" x="23" y="4" style="fill: transparent;"/><rect name="s120" width="1" height="1" x="0" y="5" style="fill: transparent;"/><rect name="s121" width="1" height="1" x="1" y="5" style="fill: transparent;"/><rect name="s122" width="1" height="1" x="2" y="5" style="fill: transparent;"/><rect name="s123" width="1" height="1" x="3" y="5" style="fill: transparent;"/><rect name="s124" width="1" height="1" x="4" y="5" style="fill: transparent;"/><rect name="s125" width="1" height="1" x="5" y="5" style="fill: transparent;"/><rect name="s126" width="1" height="1" x="6" y="5" style="fill: transparent;"/><rect name="s127" width="1" height="1" x="7" y="5" style="fill: rgb(0, 0, 0);"/><rect name="s128" width="1" height="1" x="8" y="5" style="fill: rgb(0, 0, 0);"/><rect name="s129" width="1" height="1" x="9" y="5" style="fill: rgb(0, 0, 0);"/><rect name="s130" width="1" height="1" x="10" y="5" style="fill: rgb(0, 0, 0);"/><rect name="s131" width="1" height="1" x="11" y="5" style="fill: rgb(0, 0, 0);"/><rect name="s132" width="1" height="1" x="12" y="5" style="fill: rgb(0, 0, 0);"/><rect name="s133" width="1" height="1" x="13" y="5" style="fill: rgb(0, 0, 0);"/><rect name="s134" width="1" height="1" x="14" y="5" style="fill: rgb(0, 0, 0);"/><rect name="s135" width="1" height="1" x="15" y="5" style="fill: rgb(0, 0, 0);"/><rect name="s136" width="1" height="1" x="16" y="5" style="fill: rgb(0, 0, 0);"/><rect name="s137" width="1" height="1" x="17" y="5" style="fill: rgb(0, 0, 0);"/><rect name="s138" width="1" height="1" x="18" y="5" style="fill: transparent;"/><rect name="s139" width="1" height="1" x="19" y="5" style="fill: transparent;"/><rect name="s140" width="1" height="1" x="20" y="5" style="fill: transparent;"/><rect name="s141" width="1" height="1" x="21" y="5" style="fill: transparent;"/><rect name="s142" width="1" height="1" x="22" y="5" style="fill: transparent;"/><rect name="s143" width="1" height="1" x="23" y="5" style="fill: transparent;"/><rect name="s144" width="1" height="1" x="0" y="6" style="fill: transparent;"/><rect name="s145" width="1" height="1" x="1" y="6" style="fill: transparent;"/><rect name="s146" width="1" height="1" x="2" y="6" style="fill: transparent;"/><rect name="s147" width="1" height="1" x="3" y="6" style="fill: transparent;"/><rect name="s148" width="1" height="1" x="4" y="6" style="fill: transparent;"/><rect name="s149" width="1" height="1" x="5" y="6" style="fill: transparent;"/><rect name="s150" width="1" height="1" x="6" y="6" style="fill: rgb(0, 0, 0);"/><rect name="s151" width="1" height="1" x="7" y="6" style="fill: rgb(0, 0, 0);"/><rect name="s152" width="1" height="1" x="8" y="6" style="fill: transparent;"/><rect name="s153" width="1" height="1" x="9" y="6" style="fill: rgb(0, 0, 0);"/><rect name="s154" width="1" height="1" x="10" y="6" style="fill: transparent;"/><rect name="s155" width="1" height="1" x="11" y="6" style="fill: rgb(0, 0, 0);"/><rect name="s156" width="1" height="1" x="12" y="6" style="fill: transparent;"/><rect name="s157" width="1" height="1" x="13" y="6" style="fill: rgb(0, 0, 0);"/><rect name="s158" width="1" height="1" x="14" y="6" style="fill: transparent;"/><rect name="s159" width="1" height="1" x="15" y="6" style="fill: rgb(0, 0, 0);"/><rect name="s160" width="1" height="1" x="16" y="6" style="fill: transparent;"/><rect name="s161" width="1" height="1" x="17" y="6" style="fill: rgb(0, 0, 0);"/><rect name="s162" width="1" height="1" x="18" y="6" style="fill: rgb(0, 0, 0);"/><rect name="s163" width="1" height="1" x="19" y="6" style="fill: transparent;"/><rect name="s164" width="1" height="1" x="20" y="6" style="fill: transparent;"/><rect name="s165" width="1" height="1" x="21" y="6" style="fill: transparent;"/><rect name="s166" width="1" height="1" x="22" y="6" style="fill: transparent;"/><rect name="s167" width="1" height="1" x="23" y="6" style="fill: transparent;"/><rect name="s168" width="1" height="1" x="0" y="7" style="fill: transparent;"/><rect name="s169" width="1" height="1" x="1" y="7" style="fill: transparent;"/><rect name="s170" width="1" height="1" x="2" y="7" style="fill: transparent;"/><rect name="s171" width="1" height="1" x="3" y="7" style="fill: transparent;"/><rect name="s172" width="1" height="1" x="4" y="7" style="fill: transparent;"/><rect name="s173" width="1" height="1" x="5" y="7" style="fill: transparent;"/><rect name="s174" width="1" height="1" x="6" y="7" style="fill: rgb(0, 0, 0);"/><rect name="s175" width="1" height="1" x="7" y="7" style="fill: transparent;"/><rect name="s176" width="1" height="1" x="8" y="7" style="fill: transparent;"/><rect name="s177" width="1" height="1" x="9" y="7" style="fill: transparent;"/><rect name="s178" width="1" height="1" x="10" y="7" style="fill: transparent;"/><rect name="s179" width="1" height="1" x="11" y="7" style="fill: transparent;"/><rect name="s180" width="1" height="1" x="12" y="7" style="fill: transparent;"/><rect name="s181" width="1" height="1" x="13" y="7" style="fill: transparent;"/><rect name="s182" width="1" height="1" x="14" y="7" style="fill: transparent;"/><rect name="s183" width="1" height="1" x="15" y="7" style="fill: transparent;"/><rect name="s184" width="1" height="1" x="16" y="7" style="fill: transparent;"/><rect name="s185" width="1" height="1" x="17" y="7" style="fill: transparent;"/><rect name="s186" width="1" height="1" x="18" y="7" style="fill: rgb(0, 0, 0);"/><rect name="s187" width="1" height="1" x="19" y="7" style="fill: transparent;"/><rect name="s188" width="1" height="1" x="20" y="7" style="fill: transparent;"/><rect name="s189" width="1" height="1" x="21" y="7" style="fill: transparent;"/><rect name="s190" width="1" height="1" x="22" y="7" style="fill: transparent;"/><rect name="s191" width="1" height="1" x="23" y="7" style="fill: transparent;"/><rect name="s192" width="1" height="1" x="0" y="8" style="fill: transparent;"/><rect name="s193" width="1" height="1" x="1" y="8" style="fill: transparent;"/><rect name="s194" width="1" height="1" x="2" y="8" style="fill: transparent;"/><rect name="s195" width="1" height="1" x="3" y="8" style="fill: transparent;"/><rect name="s196" width="1" height="1" x="4" y="8" style="fill: transparent;"/><rect name="s197" width="1" height="1" x="5" y="8" style="fill: rgb(0, 0, 0);"/><rect name="s198" width="1" height="1" x="6" y="8" style="fill: rgb(0, 0, 0);"/><rect name="s199" width="1" height="1" x="7" y="8" style="fill: rgb(0, 0, 0);"/><rect name="s200" width="1" height="1" x="8" y="8" style="fill: transparent;"/><rect name="s201" width="1" height="1" x="9" y="8" style="fill: transparent;"/><rect name="s202" width="1" height="1" x="10" y="8" style="fill: transparent;"/><rect name="s203" width="1" height="1" x="11" y="8" style="fill: transparent;"/><rect name="s204" width="1" height="1" x="12" y="8" style="fill: transparent;"/><rect name="s205" width="1" height="1" x="13" y="8" style="fill: transparent;"/><rect name="s206" width="1" height="1" x="14" y="8" style="fill: transparent;"/><rect name="s207" width="1" height="1" x="15" y="8" style="fill: transparent;"/><rect name="s208" width="1" height="1" x="16" y="8" style="fill: transparent;"/><rect name="s209" width="1" height="1" x="17" y="8" style="fill: rgb(0, 0, 0);"/><rect name="s210" width="1" height="1" x="18" y="8" style="fill: rgb(0, 0, 0);"/><rect name="s211" width="1" height="1" x="19" y="8" style="fill: rgb(0, 0, 0);"/><rect name="s212" width="1" height="1" x="20" y="8" style="fill: transparent;"/><rect name="s213" width="1" height="1" x="21" y="8" style="fill: transparent;"/><rect name="s214" width="1" height="1" x="22" y="8" style="fill: transparent;"/><rect name="s215" width="1" height="1" x="23" y="8" style="fill: transparent;"/><rect name="s216" width="1" height="1" x="0" y="9" style="fill: transparent;"/><rect name="s217" width="1" height="1" x="1" y="9" style="fill: transparent;"/><rect name="s218" width="1" height="1" x="2" y="9" style="fill: transparent;"/><rect name="s219" width="1" height="1" x="3" y="9" style="fill: transparent;"/><rect name="s220" width="1" height="1" x="4" y="9" style="fill: transparent;"/><rect name="s221" width="1" height="1" x="5" y="9" style="fill: transparent;"/><rect name="s222" width="1" height="1" x="6" y="9" style="fill: rgb(0, 0, 0);"/><rect name="s223" width="1" height="1" x="7" y="9" style="fill: transparent;"/><rect name="s224" width="1" height="1" x="8" y="9" style="fill: transparent;"/><rect name="s225" width="1" height="1" x="9" y="9" style="fill: transparent;"/><rect name="s226" width="1" height="1" x="10" y="9" style="fill: transparent;"/><rect name="s227" width="1" height="1" x="11" y="9" style="fill: transparent;"/><rect name="s228" width="1" height="1" x="12" y="9" style="fill: transparent;"/><rect name="s229" width="1" height="1" x="13" y="9" style="fill: transparent;"/><rect name="s230" width="1" height="1" x="14" y="9" style="fill: transparent;"/><rect name="s231" width="1" height="1" x="15" y="9" style="fill: transparent;"/><rect name="s232" width="1" height="1" x="16" y="9" style="fill: transparent;"/><rect name="s233" width="1" height="1" x="17" y="9" style="fill: transparent;"/><rect name="s234" width="1" height="1" x="18" y="9" style="fill: rgb(0, 0, 0);"/><rect name="s235" width="1" height="1" x="19" y="9" style="fill: transparent;"/><rect name="s236" width="1" height="1" x="20" y="9" style="fill: transparent;"/><rect name="s237" width="1" height="1" x="21" y="9" style="fill: transparent;"/><rect name="s238" width="1" height="1" x="22" y="9" style="fill: transparent;"/><rect name="s239" width="1" height="1" x="23" y="9" style="fill: transparent;"/><rect name="s240" width="1" height="1" x="0" y="10" style="fill: transparent;"/><rect name="s241" width="1" height="1" x="1" y="10" style="fill: transparent;"/><rect name="s242" width="1" height="1" x="2" y="10" style="fill: transparent;"/><rect name="s243" width="1" height="1" x="3" y="10" style="fill: transparent;"/><rect name="s244" width="1" height="1" x="4" y="10" style="fill: transparent;"/><rect name="s245" width="1" height="1" x="5" y="10" style="fill: rgb(0, 0, 0);"/><rect name="s246" width="1" height="1" x="6" y="10" style="fill: rgb(0, 0, 0);"/><rect name="s247" width="1" height="1" x="7" y="10" style="fill: rgb(0, 0, 0);"/><rect name="s248" width="1" height="1" x="8" y="10" style="fill: transparent;"/><rect name="s249" width="1" height="1" x="9" y="10" style="fill: transparent;"/><rect name="s250" width="1" height="1" x="10" y="10" style="fill: transparent;"/><rect name="s251" width="1" height="1" x="11" y="10" style="fill: transparent;"/><rect name="s252" width="1" height="1" x="12" y="10" style="fill: transparent;"/><rect name="s253" width="1" height="1" x="13" y="10" style="fill: transparent;"/><rect name="s254" width="1" height="1" x="14" y="10" style="fill: transparent;"/><rect name="s255" width="1" height="1" x="15" y="10" style="fill: transparent;"/><rect name="s256" width="1" height="1" x="16" y="10" style="fill: transparent;"/><rect name="s257" width="1" height="1" x="17" y="10" style="fill: rgb(0, 0, 0);"/><rect name="s258" width="1" height="1" x="18" y="10" style="fill: rgb(0, 0, 0);"/><rect name="s259" width="1" height="1" x="19" y="10" style="fill: rgb(0, 0, 0);"/><rect name="s260" width="1" height="1" x="20" y="10" style="fill: transparent;"/><rect name="s261" width="1" height="1" x="21" y="10" style="fill: transparent;"/><rect name="s262" width="1" height="1" x="22" y="10" style="fill: transparent;"/><rect name="s263" width="1" height="1" x="23" y="10" style="fill: transparent;"/><rect name="s264" width="1" height="1" x="0" y="11" style="fill: transparent;"/><rect name="s265" width="1" height="1" x="1" y="11" style="fill: transparent;"/><rect name="s266" width="1" height="1" x="2" y="11" style="fill: transparent;"/><rect name="s267" width="1" height="1" x="3" y="11" style="fill: transparent;"/><rect name="s268" width="1" height="1" x="4" y="11" style="fill: transparent;"/><rect name="s269" width="1" height="1" x="5" y="11" style="fill: transparent;"/><rect name="s270" width="1" height="1" x="6" y="11" style="fill: rgb(0, 0, 0);"/><rect name="s271" width="1" height="1" x="7" y="11" style="fill: transparent;"/><rect name="s272" width="1" height="1" x="8" y="11" style="fill: transparent;"/><rect name="s273" width="1" height="1" x="9" y="11" style="fill: transparent;"/><rect name="s274" width="1" height="1" x="10" y="11" style="fill: transparent;"/><rect name="s275" width="1" height="1" x="11" y="11" style="fill: transparent;"/><rect name="s276" width="1" height="1" x="12" y="11" style="fill: transparent;"/><rect name="s277" width="1" height="1" x="13" y="11" style="fill: transparent;"/><rect name="s278" width="1" height="1" x="14" y="11" style="fill: transparent;"/><rect name="s279" width="1" height="1" x="15" y="11" style="fill: transparent;"/><rect name="s280" width="1" height="1" x="16" y="11" style="fill: transparent;"/><rect name="s281" width="1" height="1" x="17" y="11" style="fill: transparent;"/><rect name="s282" width="1" height="1" x="18" y="11" style="fill: rgb(0, 0, 0);"/><rect name="s283" width="1" height="1" x="19" y="11" style="fill: transparent;"/><rect name="s284" width="1" height="1" x="20" y="11" style="fill: transparent;"/><rect name="s285" width="1" height="1" x="21" y="11" style="fill: transparent;"/><rect name="s286" width="1" height="1" x="22" y="11" style="fill: transparent;"/><rect name="s287" width="1" height="1" x="23" y="11" style="fill: transparent;"/><rect name="s288" width="1" height="1" x="0" y="12" style="fill: transparent;"/><rect name="s289" width="1" height="1" x="1" y="12" style="fill: transparent;"/><rect name="s290" width="1" height="1" x="2" y="12" style="fill: transparent;"/><rect name="s291" width="1" height="1" x="3" y="12" style="fill: transparent;"/><rect name="s292" width="1" height="1" x="4" y="12" style="fill: transparent;"/><rect name="s293" width="1" height="1" x="5" y="12" style="fill: rgb(0, 0, 0);"/><rect name="s294" width="1" height="1" x="6" y="12" style="fill: rgb(0, 0, 0);"/><rect name="s295" width="1" height="1" x="7" y="12" style="fill: rgb(0, 0, 0);"/><rect name="s296" width="1" height="1" x="8" y="12" style="fill: transparent;"/><rect name="s297" width="1" height="1" x="9" y="12" style="fill: transparent;"/><rect name="s298" width="1" height="1" x="10" y="12" style="fill: transparent;"/><rect name="s299" width="1" height="1" x="11" y="12" style="fill: transparent;"/><rect name="s300" width="1" height="1" x="12" y="12" style="fill: transparent;"/><rect name="s301" width="1" height="1" x="13" y="12" style="fill: transparent;"/><rect name="s302" width="1" height="1" x="14" y="12" style="fill: transparent;"/><rect name="s303" width="1" height="1" x="15" y="12" style="fill: transparent;"/><rect name="s304" width="1" height="1" x="16" y="12" style="fill: transparent;"/><rect name="s305" width="1" height="1" x="17" y="12" style="fill: rgb(0, 0, 0);"/><rect name="s306" width="1" height="1" x="18" y="12" style="fill: rgb(0, 0, 0);"/><rect name="s307" width="1" height="1" x="19" y="12" style="fill: rgb(0, 0, 0);"/><rect name="s308" width="1" height="1" x="20" y="12" style="fill: transparent;"/><rect name="s309" width="1" height="1" x="21" y="12" style="fill: transparent;"/><rect name="s310" width="1" height="1" x="22" y="12" style="fill: transparent;"/><rect name="s311" width="1" height="1" x="23" y="12" style="fill: transparent;"/><rect name="s312" width="1" height="1" x="0" y="13" style="fill: transparent;"/><rect name="s313" width="1" height="1" x="1" y="13" style="fill: transparent;"/><rect name="s314" width="1" height="1" x="2" y="13" style="fill: transparent;"/><rect name="s315" width="1" height="1" x="3" y="13" style="fill: transparent;"/><rect name="s316" width="1" height="1" x="4" y="13" style="fill: transparent;"/><rect name="s317" width="1" height="1" x="5" y="13" style="fill: transparent;"/><rect name="s318" width="1" height="1" x="6" y="13" style="fill: rgb(0, 0, 0);"/><rect name="s319" width="1" height="1" x="7" y="13" style="fill: transparent;"/><rect name="s320" width="1" height="1" x="8" y="13" style="fill: transparent;"/><rect name="s321" width="1" height="1" x="9" y="13" style="fill: transparent;"/><rect name="s322" width="1" height="1" x="10" y="13" style="fill: transparent;"/><rect name="s323" width="1" height="1" x="11" y="13" style="fill: transparent;"/><rect name="s324" width="1" height="1" x="12" y="13" style="fill: transparent;"/><rect name="s325" width="1" height="1" x="13" y="13" style="fill: transparent;"/><rect name="s326" width="1" height="1" x="14" y="13" style="fill: transparent;"/><rect name="s327" width="1" height="1" x="15" y="13" style="fill: transparent;"/><rect name="s328" width="1" height="1" x="16" y="13" style="fill: transparent;"/><rect name="s329" width="1" height="1" x="17" y="13" style="fill: transparent;"/><rect name="s330" width="1" height="1" x="18" y="13" style="fill: rgb(0, 0, 0);"/><rect name="s331" width="1" height="1" x="19" y="13" style="fill: transparent;"/><rect name="s332" width="1" height="1" x="20" y="13" style="fill: transparent;"/><rect name="s333" width="1" height="1" x="21" y="13" style="fill: transparent;"/><rect name="s334" width="1" height="1" x="22" y="13" style="fill: transparent;"/><rect name="s335" width="1" height="1" x="23" y="13" style="fill: transparent;"/><rect name="s336" width="1" height="1" x="0" y="14" style="fill: transparent;"/><rect name="s337" width="1" height="1" x="1" y="14" style="fill: transparent;"/><rect name="s338" width="1" height="1" x="2" y="14" style="fill: transparent;"/><rect name="s339" width="1" height="1" x="3" y="14" style="fill: transparent;"/><rect name="s340" width="1" height="1" x="4" y="14" style="fill: transparent;"/><rect name="s341" width="1" height="1" x="5" y="14" style="fill: rgb(0, 0, 0);"/><rect name="s342" width="1" height="1" x="6" y="14" style="fill: rgb(0, 0, 0);"/><rect name="s343" width="1" height="1" x="7" y="14" style="fill: rgb(0, 0, 0);"/><rect name="s344" width="1" height="1" x="8" y="14" style="fill: transparent;"/><rect name="s345" width="1" height="1" x="9" y="14" style="fill: transparent;"/><rect name="s346" width="1" height="1" x="10" y="14" style="fill: transparent;"/><rect name="s347" width="1" height="1" x="11" y="14" style="fill: transparent;"/><rect name="s348" width="1" height="1" x="12" y="14" style="fill: transparent;"/><rect name="s349" width="1" height="1" x="13" y="14" style="fill: transparent;"/><rect name="s350" width="1" height="1" x="14" y="14" style="fill: transparent;"/><rect name="s351" width="1" height="1" x="15" y="14" style="fill: transparent;"/><rect name="s352" width="1" height="1" x="16" y="14" style="fill: transparent;"/><rect name="s353" width="1" height="1" x="17" y="14" style="fill: rgb(0, 0, 0);"/><rect name="s354" width="1" height="1" x="18" y="14" style="fill: rgb(0, 0, 0);"/><rect name="s355" width="1" height="1" x="19" y="14" style="fill: rgb(0, 0, 0);"/><rect name="s356" width="1" height="1" x="20" y="14" style="fill: transparent;"/><rect name="s357" width="1" height="1" x="21" y="14" style="fill: transparent;"/><rect name="s358" width="1" height="1" x="22" y="14" style="fill: transparent;"/><rect name="s359" width="1" height="1" x="23" y="14" style="fill: transparent;"/><rect name="s360" width="1" height="1" x="0" y="15" style="fill: transparent;"/><rect name="s361" width="1" height="1" x="1" y="15" style="fill: transparent;"/><rect name="s362" width="1" height="1" x="2" y="15" style="fill: transparent;"/><rect name="s363" width="1" height="1" x="3" y="15" style="fill: transparent;"/><rect name="s364" width="1" height="1" x="4" y="15" style="fill: transparent;"/><rect name="s365" width="1" height="1" x="5" y="15" style="fill: transparent;"/><rect name="s366" width="1" height="1" x="6" y="15" style="fill: rgb(0, 0, 0);"/><rect name="s367" width="1" height="1" x="7" y="15" style="fill: transparent;"/><rect name="s368" width="1" height="1" x="8" y="15" style="fill: transparent;"/><rect name="s369" width="1" height="1" x="9" y="15" style="fill: transparent;"/><rect name="s370" width="1" height="1" x="10" y="15" style="fill: transparent;"/><rect name="s371" width="1" height="1" x="11" y="15" style="fill: transparent;"/><rect name="s372" width="1" height="1" x="12" y="15" style="fill: transparent;"/><rect name="s373" width="1" height="1" x="13" y="15" style="fill: transparent;"/><rect name="s374" width="1" height="1" x="14" y="15" style="fill: transparent;"/><rect name="s375" width="1" height="1" x="15" y="15" style="fill: transparent;"/><rect name="s376" width="1" height="1" x="16" y="15" style="fill: transparent;"/><rect name="s377" width="1" height="1" x="17" y="15" style="fill: transparent;"/><rect name="s378" width="1" height="1" x="18" y="15" style="fill: rgb(0, 0, 0);"/><rect name="s379" width="1" height="1" x="19" y="15" style="fill: transparent;"/><rect name="s380" width="1" height="1" x="20" y="15" style="fill: transparent;"/><rect name="s381" width="1" height="1" x="21" y="15" style="fill: transparent;"/><rect name="s382" width="1" height="1" x="22" y="15" style="fill: transparent;"/><rect name="s383" width="1" height="1" x="23" y="15" style="fill: transparent;"/><rect name="s384" width="1" height="1" x="0" y="16" style="fill: transparent;"/><rect name="s385" width="1" height="1" x="1" y="16" style="fill: transparent;"/><rect name="s386" width="1" height="1" x="2" y="16" style="fill: transparent;"/><rect name="s387" width="1" height="1" x="3" y="16" style="fill: transparent;"/><rect name="s388" width="1" height="1" x="4" y="16" style="fill: transparent;"/><rect name="s389" width="1" height="1" x="5" y="16" style="fill: rgb(0, 0, 0);"/><rect name="s390" width="1" height="1" x="6" y="16" style="fill: rgb(0, 0, 0);"/><rect name="s391" width="1" height="1" x="7" y="16" style="fill: rgb(0, 0, 0);"/><rect name="s392" width="1" height="1" x="8" y="16" style="fill: transparent;"/><rect name="s393" width="1" height="1" x="9" y="16" style="fill: transparent;"/><rect name="s394" width="1" height="1" x="10" y="16" style="fill: transparent;"/><rect name="s395" width="1" height="1" x="11" y="16" style="fill: transparent;"/><rect name="s396" width="1" height="1" x="12" y="16" style="fill: transparent;"/><rect name="s397" width="1" height="1" x="13" y="16" style="fill: transparent;"/><rect name="s398" width="1" height="1" x="14" y="16" style="fill: transparent;"/><rect name="s399" width="1" height="1" x="15" y="16" style="fill: transparent;"/><rect name="s400" width="1" height="1" x="16" y="16" style="fill: transparent;"/><rect name="s401" width="1" height="1" x="17" y="16" style="fill: rgb(0, 0, 0);"/><rect name="s402" width="1" height="1" x="18" y="16" style="fill: rgb(0, 0, 0);"/><rect name="s403" width="1" height="1" x="19" y="16" style="fill: rgb(0, 0, 0);"/><rect name="s404" width="1" height="1" x="20" y="16" style="fill: transparent;"/><rect name="s405" width="1" height="1" x="21" y="16" style="fill: transparent;"/><rect name="s406" width="1" height="1" x="22" y="16" style="fill: transparent;"/><rect name="s407" width="1" height="1" x="23" y="16" style="fill: transparent;"/><rect name="s408" width="1" height="1" x="0" y="17" style="fill: transparent;"/><rect name="s409" width="1" height="1" x="1" y="17" style="fill: transparent;"/><rect name="s410" width="1" height="1" x="2" y="17" style="fill: transparent;"/><rect name="s411" width="1" height="1" x="3" y="17" style="fill: transparent;"/><rect name="s412" width="1" height="1" x="4" y="17" style="fill: transparent;"/><rect name="s413" width="1" height="1" x="5" y="17" style="fill: transparent;"/><rect name="s414" width="1" height="1" x="6" y="17" style="fill: rgb(0, 0, 0);"/><rect name="s415" width="1" height="1" x="7" y="17" style="fill: transparent;"/><rect name="s416" width="1" height="1" x="8" y="17" style="fill: transparent;"/><rect name="s417" width="1" height="1" x="9" y="17" style="fill: transparent;"/><rect name="s418" width="1" height="1" x="10" y="17" style="fill: transparent;"/><rect name="s419" width="1" height="1" x="11" y="17" style="fill: transparent;"/><rect name="s420" width="1" height="1" x="12" y="17" style="fill: transparent;"/><rect name="s421" width="1" height="1" x="13" y="17" style="fill: transparent;"/><rect name="s422" width="1" height="1" x="14" y="17" style="fill: transparent;"/><rect name="s423" width="1" height="1" x="15" y="17" style="fill: transparent;"/><rect name="s424" width="1" height="1" x="16" y="17" style="fill: transparent;"/><rect name="s425" width="1" height="1" x="17" y="17" style="fill: transparent;"/><rect name="s426" width="1" height="1" x="18" y="17" style="fill: rgb(0, 0, 0);"/><rect name="s427" width="1" height="1" x="19" y="17" style="fill: transparent;"/><rect name="s428" width="1" height="1" x="20" y="17" style="fill: transparent;"/><rect name="s429" width="1" height="1" x="21" y="17" style="fill: transparent;"/><rect name="s430" width="1" height="1" x="22" y="17" style="fill: transparent;"/><rect name="s431" width="1" height="1" x="23" y="17" style="fill: transparent;"/><rect name="s432" width="1" height="1" x="0" y="18" style="fill: transparent;"/><rect name="s433" width="1" height="1" x="1" y="18" style="fill: transparent;"/><rect name="s434" width="1" height="1" x="2" y="18" style="fill: transparent;"/><rect name="s435" width="1" height="1" x="3" y="18" style="fill: transparent;"/><rect name="s436" width="1" height="1" x="4" y="18" style="fill: transparent;"/><rect name="s437" width="1" height="1" x="5" y="18" style="fill: transparent;"/><rect name="s438" width="1" height="1" x="6" y="18" style="fill: rgb(0, 0, 0);"/><rect name="s439" width="1" height="1" x="7" y="18" style="fill: rgb(0, 0, 0);"/><rect name="s440" width="1" height="1" x="8" y="18" style="fill: transparent;"/><rect name="s441" width="1" height="1" x="9" y="18" style="fill: rgb(0, 0, 0);"/><rect name="s442" width="1" height="1" x="10" y="18" style="fill: transparent;"/><rect name="s443" width="1" height="1" x="11" y="18" style="fill: rgb(0, 0, 0);"/><rect name="s444" width="1" height="1" x="12" y="18" style="fill: transparent;"/><rect name="s445" width="1" height="1" x="13" y="18" style="fill: rgb(0, 0, 0);"/><rect name="s446" width="1" height="1" x="14" y="18" style="fill: transparent;"/><rect name="s447" width="1" height="1" x="15" y="18" style="fill: rgb(0, 0, 0);"/><rect name="s448" width="1" height="1" x="16" y="18" style="fill: transparent;"/><rect name="s449" width="1" height="1" x="17" y="18" style="fill: rgb(0, 0, 0);"/><rect name="s450" width="1" height="1" x="18" y="18" style="fill: rgb(0, 0, 0);"/><rect name="s451" width="1" height="1" x="19" y="18" style="fill: transparent;"/><rect name="s452" width="1" height="1" x="20" y="18" style="fill: transparent;"/><rect name="s453" width="1" height="1" x="21" y="18" style="fill: transparent;"/><rect name="s454" width="1" height="1" x="22" y="18" style="fill: transparent;"/><rect name="s455" width="1" height="1" x="23" y="18" style="fill: transparent;"/><rect name="s456" width="1" height="1" x="0" y="19" style="fill: transparent;"/><rect name="s457" width="1" height="1" x="1" y="19" style="fill: transparent;"/><rect name="s458" width="1" height="1" x="2" y="19" style="fill: transparent;"/><rect name="s459" width="1" height="1" x="3" y="19" style="fill: transparent;"/><rect name="s460" width="1" height="1" x="4" y="19" style="fill: transparent;"/><rect name="s461" width="1" height="1" x="5" y="19" style="fill: transparent;"/><rect name="s462" width="1" height="1" x="6" y="19" style="fill: transparent;"/><rect name="s463" width="1" height="1" x="7" y="19" style="fill: rgb(0, 0, 0);"/><rect name="s464" width="1" height="1" x="8" y="19" style="fill: rgb(0, 0, 0);"/><rect name="s465" width="1" height="1" x="9" y="19" style="fill: rgb(0, 0, 0);"/><rect name="s466" width="1" height="1" x="10" y="19" style="fill: rgb(0, 0, 0);"/><rect name="s467" width="1" height="1" x="11" y="19" style="fill: rgb(0, 0, 0);"/><rect name="s468" width="1" height="1" x="12" y="19" style="fill: rgb(0, 0, 0);"/><rect name="s469" width="1" height="1" x="13" y="19" style="fill: rgb(0, 0, 0);"/><rect name="s470" width="1" height="1" x="14" y="19" style="fill: rgb(0, 0, 0);"/><rect name="s471" width="1" height="1" x="15" y="19" style="fill: rgb(0, 0, 0);"/><rect name="s472" width="1" height="1" x="16" y="19" style="fill: rgb(0, 0, 0);"/><rect name="s473" width="1" height="1" x="17" y="19" style="fill: rgb(0, 0, 0);"/><rect name="s474" width="1" height="1" x="18" y="19" style="fill: transparent;"/><rect name="s475" width="1" height="1" x="19" y="19" style="fill: transparent;"/><rect name="s476" width="1" height="1" x="20" y="19" style="fill: transparent;"/><rect name="s477" width="1" height="1" x="21" y="19" style="fill: transparent;"/><rect name="s478" width="1" height="1" x="22" y="19" style="fill: transparent;"/><rect name="s479" width="1" height="1" x="23" y="19" style="fill: transparent;"/><rect name="s480" width="1" height="1" x="0" y="20" style="fill: transparent;"/><rect name="s481" width="1" height="1" x="1" y="20" style="fill: transparent;"/><rect name="s482" width="1" height="1" x="2" y="20" style="fill: transparent;"/><rect name="s483" width="1" height="1" x="3" y="20" style="fill: transparent;"/><rect name="s484" width="1" height="1" x="4" y="20" style="fill: transparent;"/><rect name="s485" width="1" height="1" x="5" y="20" style="fill: transparent;"/><rect name="s486" width="1" height="1" x="6" y="20" style="fill: transparent;"/><rect name="s487" width="1" height="1" x="7" y="20" style="fill: transparent;"/><rect name="s488" width="1" height="1" x="8" y="20" style="fill: transparent;"/><rect name="s489" width="1" height="1" x="9" y="20" style="fill: rgb(0, 0, 0);"/><rect name="s490" width="1" height="1" x="10" y="20" style="fill: transparent;"/><rect name="s491" width="1" height="1" x="11" y="20" style="fill: rgb(0, 0, 0);"/><rect name="s492" width="1" height="1" x="12" y="20" style="fill: transparent;"/><rect name="s493" width="1" height="1" x="13" y="20" style="fill: rgb(0, 0, 0);"/><rect name="s494" width="1" height="1" x="14" y="20" style="fill: transparent;"/><rect name="s495" width="1" height="1" x="15" y="20" style="fill: rgb(0, 0, 0);"/><rect name="s496" width="1" height="1" x="16" y="20" style="fill: transparent;"/><rect name="s497" width="1" height="1" x="17" y="20" style="fill: transparent;"/><rect name="s498" width="1" height="1" x="18" y="20" style="fill: transparent;"/><rect name="s499" width="1" height="1" x="19" y="20" style="fill: transparent;"/><rect name="s500" width="1" height="1" x="20" y="20" style="fill: transparent;"/><rect name="s501" width="1" height="1" x="21" y="20" style="fill: transparent;"/><rect name="s502" width="1" height="1" x="22" y="20" style="fill: transparent;"/><rect name="s503" width="1" height="1" x="23" y="20" style="fill: transparent;"/><rect name="s504" width="1" height="1" x="0" y="21" style="fill: transparent;"/><rect name="s505" width="1" height="1" x="1" y="21" style="fill: transparent;"/><rect name="s506" width="1" height="1" x="2" y="21" style="fill: transparent;"/><rect name="s507" width="1" height="1" x="3" y="21" style="fill: transparent;"/><rect name="s508" width="1" height="1" x="4" y="21" style="fill: transparent;"/><rect name="s509" width="1" height="1" x="5" y="21" style="fill: transparent;"/><rect name="s510" width="1" height="1" x="6" y="21" style="fill: transparent;"/><rect name="s511" width="1" height="1" x="7" y="21" style="fill: transparent;"/><rect name="s512" width="1" height="1" x="8" y="21" style="fill: transparent;"/><rect name="s513" width="1" height="1" x="9" y="21" style="fill: transparent;"/><rect name="s514" width="1" height="1" x="10" y="21" style="fill: transparent;"/><rect name="s515" width="1" height="1" x="11" y="21" style="fill: transparent;"/><rect name="s516" width="1" height="1" x="12" y="21" style="fill: transparent;"/><rect name="s517" width="1" height="1" x="13" y="21" style="fill: transparent;"/><rect name="s518" width="1" height="1" x="14" y="21" style="fill: transparent;"/><rect name="s519" width="1" height="1" x="15" y="21" style="fill: transparent;"/><rect name="s520" width="1" height="1" x="16" y="21" style="fill: transparent;"/><rect name="s521" width="1" height="1" x="17" y="21" style="fill: transparent;"/><rect name="s522" width="1" height="1" x="18" y="21" style="fill: transparent;"/><rect name="s523" width="1" height="1" x="19" y="21" style="fill: transparent;"/><rect name="s524" width="1" height="1" x="20" y="21" style="fill: transparent;"/><rect name="s525" width="1" height="1" x="21" y="21" style="fill: transparent;"/><rect name="s526" width="1" height="1" x="22" y="21" style="fill: transparent;"/><rect name="s527" width="1" height="1" x="23" y="21" style="fill: transparent;"/><rect name="s528" width="1" height="1" x="0" y="22" style="fill: transparent;"/><rect name="s529" width="1" height="1" x="1" y="22" style="fill: transparent;"/><rect name="s530" width="1" height="1" x="2" y="22" style="fill: transparent;"/><rect name="s531" width="1" height="1" x="3" y="22" style="fill: transparent;"/><rect name="s532" width="1" height="1" x="4" y="22" style="fill: transparent;"/><rect name="s533" width="1" height="1" x="5" y="22" style="fill: transparent;"/><rect name="s534" width="1" height="1" x="6" y="22" style="fill: transparent;"/><rect name="s535" width="1" height="1" x="7" y="22" style="fill: transparent;"/><rect name="s536" width="1" height="1" x="8" y="22" style="fill: transparent;"/><rect name="s537" width="1" height="1" x="9" y="22" style="fill: transparent;"/><rect name="s538" width="1" height="1" x="10" y="22" style="fill: transparent;"/><rect name="s539" width="1" height="1" x="11" y="22" style="fill: transparent;"/><rect name="s540" width="1" height="1" x="12" y="22" style="fill: transparent;"/><rect name="s541" width="1" height="1" x="13" y="22" style="fill: transparent;"/><rect name="s542" width="1" height="1" x="14" y="22" style="fill: transparent;"/><rect name="s543" width="1" height="1" x="15" y="22" style="fill: transparent;"/><rect name="s544" width="1" height="1" x="16" y="22" style="fill: transparent;"/><rect name="s545" width="1" height="1" x="17" y="22" style="fill: transparent;"/><rect name="s546" width="1" height="1" x="18" y="22" style="fill: transparent;"/><rect name="s547" width="1" height="1" x="19" y="22" style="fill: transparent;"/><rect name="s548" width="1" height="1" x="20" y="22" style="fill: transparent;"/><rect name="s549" width="1" height="1" x="21" y="22" style="fill: transparent;"/><rect name="s550" width="1" height="1" x="22" y="22" style="fill: transparent;"/><rect name="s551" width="1" height="1" x="23" y="22" style="fill: transparent;"/><rect name="s552" width="1" height="1" x="0" y="23" style="fill: transparent;"/><rect name="s553" width="1" height="1" x="1" y="23" style="fill: transparent;"/><rect name="s554" width="1" height="1" x="2" y="23" style="fill: transparent;"/><rect name="s555" width="1" height="1" x="3" y="23" style="fill: transparent;"/><rect name="s556" width="1" height="1" x="4" y="23" style="fill: transparent;"/><rect name="s557" width="1" height="1" x="5" y="23" style="fill: transparent;"/><rect name="s558" width="1" height="1" x="6" y="23" style="fill: transparent;"/><rect name="s559" width="1" height="1" x="7" y="23" style="fill: transparent;"/><rect name="s560" width="1" height="1" x="8" y="23" style="fill: transparent;"/><rect name="s561" width="1" height="1" x="9" y="23" style="fill: transparent;"/><rect name="s562" width="1" height="1" x="10" y="23" style="fill: transparent;"/><rect name="s563" width="1" height="1" x="11" y="23" style="fill: transparent;"/><rect name="s564" width="1" height="1" x="12" y="23" style="fill: transparent;"/><rect name="s565" width="1" height="1" x="13" y="23" style="fill: transparent;"/><rect name="s566" width="1" height="1" x="14" y="23" style="fill: transparent;"/><rect name="s567" width="1" height="1" x="15" y="23" style="fill: transparent;"/><rect name="s568" width="1" height="1" x="16" y="23" style="fill: transparent;"/><rect name="s569" width="1" height="1" x="17" y="23" style="fill: transparent;"/><rect name="s570" width="1" height="1" x="18" y="23" style="fill: transparent;"/><rect name="s571" width="1" height="1" x="19" y="23" style="fill: transparent;"/><rect name="s572" width="1" height="1" x="20" y="23" style="fill: transparent;"/><rect name="s573" width="1" height="1" x="21" y="23" style="fill: transparent;"/><rect name="s574" width="1" height="1" x="22" y="23" style="fill: transparent;"/><rect name="s575" width="1" height="1" x="23" y="23" style="fill: transparent;"/></svg>